<?xml version="1.0" encoding="UTF-8"?>
<svg width="30px" height="30px" viewBox="0 0 30 30" version="1.1" xmlns="http://www.w3.org/2000/svg" xmlns:xlink="http://www.w3.org/1999/xlink">
    <!-- Generator: Sketch 56.2 (81672) - https://sketch.com -->
    <title>squarelink_logo@1x</title>
    <desc>Created with Sketch.</desc>
    <g id="Symbols" stroke="none" stroke-width="1" fill="none" fill-rule="evenodd">
        <g id="Header-Nav" transform="translate(0.000000, -10.000000)">
            <g id="squarelink_logo">
                <g transform="translate(0.000000, 10.000000)">
                    <g>
                        <path d="M0,0 L22.6956522,0 C26.1774473,0 29,2.7195423 29,6.07426775 L29,21.9257323 C29,25.2804578 26.1774473,28 22.6956522,28 L6.30434783,28 C2.82255266,28 0,25.2804578 0,21.9257323 L0,0 Z M4.09133276,3.52568751 L4.09133276,22.0264634 C4.09133276,23.3683536 5.22035383,24.4561705 6.61307189,24.4561705 L22.4126887,24.4561705 C23.8054068,24.4561705 24.9344278,23.3683536 24.9344278,22.0264634 L24.9344278,5.95539461 C24.9344278,4.61350443 23.8054068,3.52568751 22.4126887,3.52568751 L4.09133276,3.52568751 Z M8.4988789,3.52568751 L12.5632893,3.52568751 L12.5632893,12.506064 L12.5632893,17.6573039 C12.5632893,18.999194 11.4342682,20.087011 10.0415501,20.087011 L4.09133276,20.087011 L4.09133276,16.6718917 L8.4988789,16.6718917 L8.4988789,3.52568751 Z M8.4988789,3.52568751 L12.5632893,3.52568751 L8.4988789,3.52568751 Z M4.09133276,20.087011 L4.09133276,16.6718917 L4.09133276,20.087011 Z M20.5268818,24.4561705 L16.4624714,24.4561705 L16.4624714,15.475794 L16.4624714,10.3245541 C16.4624714,8.98266397 17.5914924,7.89484705 18.9842105,7.89484705 L24.9344278,7.89484705 L24.9344278,11.3099663 L20.5268818,11.3099663 L20.5268818,24.4561705 Z M24.9344278,7.89484705 L24.9344278,11.3099663 L24.9344278,7.89484705 Z M20.5268818,24.4561705 L16.4624714,24.4561705 L20.5268818,24.4561705 Z" id="Icon-Blue" fill="#3964DF" fill-rule="nonzero"></path>
                    </g>
                </g>
            </g>
        </g>
    </g>
</svg>