<?xml version="1.0" standalone="no"?>
<!DOCTYPE svg PUBLIC "-//W3C//DTD SVG 20010904//EN"
 "http://www.w3.org/TR/2001/REC-SVG-20010904/DTD/svg10.dtd">
<svg version="1.0" xmlns="http://www.w3.org/2000/svg"
 width="377.000000pt" height="595.000000pt" viewBox="0 0 377.000000 595.000000"
 preserveAspectRatio="xMidYMid meet">

<g transform="translate(0.000000,595.000000) scale(0.100000,-0.100000)"
fill="#fff" stroke="none">
<path d="M510 5926 c-59 -19 -390 -130 -448 -151 -9 -3 4 -37 42 -112 115
-230 115 -306 -4 -678 -77 -245 -94 -332 -94 -515 -1 -174 13 -257 70 -428 95
-288 276 -522 538 -701 242 -164 478 -257 781 -307 70 -11 110 -23 120 -34 37
-40 38 -122 36 -1577 l-3 -1423 321 0 321 0 -1 1158 c0 636 -5 1297 -10 1467
-6 171 -11 325 -12 343 0 18 4 37 11 44 6 6 50 14 99 19 253 23 723 202 918
349 105 79 242 215 320 319 167 221 264 531 252 801 -7 147 -25 242 -86 465
-74 273 -85 329 -85 440 1 111 16 162 78 259 57 89 56 104 -7 131 -63 26 -448
127 -507 132 -54 5 -57 4 -81 -28 -146 -191 -154 -525 -24 -949 61 -198 78
-298 78 -460 0 -116 -5 -161 -22 -224 -45 -169 -152 -333 -279 -426 -132 -98
-328 -185 -482 -214 -137 -26 -432 -38 -642 -26 -216 12 -329 29 -450 70 -390
131 -596 387 -623 773 -8 116 11 248 61 417 80 270 92 318 108 409 20 120 21
290 0 389 -20 99 -70 216 -110 259 -38 41 -74 42 -184 9z"/>
<path d="M1247 4617 c-185 -349 -337 -636 -337 -640 0 -12 503 -247 528 -247
23 0 74 87 180 310 99 207 152 336 191 469 17 58 33 106 35 108 2 2 25 -56 51
-129 91 -253 278 -664 346 -760 l21 -29 201 104 c257 132 317 166 317 180 0
16 -601 1155 -656 1245 -14 22 -16 22 -277 22 l-263 0 -337 -633z"/>
<path d="M42 2628 l3 -283 583 -3 582 -2 0 285 0 285 -585 0 -585 0 2 -282z"/>
<path d="M2530 2625 l0 -285 585 0 585 0 0 285 0 285 -585 0 -585 0 0 -285z"/>
<path d="M42 1698 l3 -283 583 -3 582 -2 0 285 0 285 -585 0 -585 0 2 -282z"/>
<path d="M2530 1695 l0 -285 585 0 585 0 0 285 0 285 -585 0 -585 0 0 -285z"/>
<path d="M47 1043 c-4 -3 -7 -132 -7 -285 l0 -278 585 0 585 0 0 285 0 285
-578 0 c-318 0 -582 -3 -585 -7z"/>
<path d="M2530 765 l0 -285 585 0 585 0 0 285 0 285 -585 0 -585 0 0 -285z"/>
</g>
</svg>
