<?xml version="1.0" encoding="utf-8"?>
<!-- Generator: Adobe Illustrator 25.0.0, SVG Export Plug-In . SVG Version: 6.00 Build 0)  -->
<svg version="1.1" id="Layer_1" xmlns="http://www.w3.org/2000/svg" xmlns:xlink="http://www.w3.org/1999/xlink" x="0px" y="0px"
	 viewBox="0 0 4197 4209" style="enable-background:new 0 0 4197 4209;" xml:space="preserve">
<style type="text/css">
	.st0{fill:#0095C5;}
	.st1{display:none;}
	.st2{display:inline;}
	.st3{fill:#FFFFFF;}
	.st4{fill:#479997;}
	.st5{fill:#60BCD0;}
	.st6{fill:#3D94C3;}
	.st7{fill:#2B3F67;}
	.st8{fill:#D66339;}
</style>
<g id="Layer_2_1_">
</g>
<g id="Layer_5">
</g>
<g id="Layer_4">
</g>
<g id="Layer_6">
	<path class="st0" d="M3786.7,1072.6l-203.5,175.2c140,248.9,220.2,535.8,220.2,841.3c0,907.8-706,1653.4-1597.6,1717.8v-151.8
		c809.3-63.9,1446.2-740.3,1446.2-1566c0-267.9-67.4-519.9-185.6-740.7l-205.6,177c81.9,170.8,128.1,361.9,128.1,563.7
		c0,679.1-520.2,1238.9-1183.1,1302.2v-174.7c567.6-62.4,1009.3-543.3,1009.3-1127.5c0-6-0.4-11.9-0.5-17.9h-3.4l0.5-0.8h-953.5
		v263.1h658.7c-106,361.9-440.6,627.1-836.3,627.1c-480.5,0-871.4-390.9-871.4-871.4s390.9-871.4,871.4-871.4
		c296.2,0,558.2,148.6,715.7,375.2l200.4-172.6c-183.2-250.4-466.3-423-790.9-458.6V786.8c376.8,36,707.3,232.5,922.6,520
		l200.2-172.4C3065.2,790.8,2663.1,559.1,2205.8,523V371.1c502.4,36.3,945.8,288.9,1237.2,664.8l200-172.1
		c-363.6-463-928-760.8-1562.4-760.8c-1096.9,0-1986,889.2-1986,1986s889.2,1986,1986,1986s1986-889.1,1986-1986
		C4066.6,1717.5,3964.3,1370,3786.7,1072.6 M1942.8,3806C1057,3735.4,357.6,2992.6,357.6,2089c0-903.6,699.3-1646.4,1585.1-1716.9
		V524C1139.4,593.8,509.2,1267.7,509.2,2089c0,821.4,630.3,1495.2,1433.6,1565V3806z M1942.8,3390.1
		C1285.9,3321,772.2,2763.8,772.2,2089c0-674.9,513.7-1231.9,1170.5-1301v175.1c-561.5,68.1-996.7,546-996.7,1125.9
		c0,579.9,435.2,1057.8,996.7,1125.9V3390.1z"/>
	<g class="st1">
		<g class="st2">
			<path class="st3" d="M-3194.9,2218.3c-0.7-12.7-10.4-28.3-30.3-28.1c-16.5,0.1-28.2,12.8-29,28.1
				C-3234.4,2218.3-3214.7,2218.3-3194.9,2218.3z M-3253.8,2232.6c0.3,1.7,0.4,3.1,0.8,4.6c2,8.8,6.6,15.7,14.4,20.4
				c5.1,3.1,10.7,4.3,16.7,3.9c3.9-0.3,7.8-1.1,11.3-2.8c5.4-2.5,9.6-6.2,12.2-11.6c0.1-0.1,0.1-0.3,0.2-0.4c0,0,0.1-0.1,0.2-0.2
				c5.7,1.6,11.6,3.3,17.5,5c-0.2,0.5-0.4,0.8-0.5,1.2c-2.9,5.7-7,10.4-12.1,14.2c-6.9,5.1-14.7,8.1-23.2,9.3
				c-7,0.9-14,0.9-20.9-0.8c-17.8-4.4-29.8-15.4-35.8-32.7c-2.3-6.5-3-13.2-2.6-20c0.8-12.4,5.3-23.3,13.7-32.4
				c6.9-7.4,15.3-12,25.1-14.1c5.6-1.2,11.4-1.6,17.1-1.1c16.2,1.5,28.9,9,37.8,22.6c3.6,5.5,5.6,11.6,6.8,18
				c0.9,5.3,1.1,10.5,0.4,15.8c0,0.3-0.1,0.6-0.2,1.1C-3201.1,2232.6-3227.4,2232.6-3253.8,2232.6z"/>
			<path class="st3" d="M-3306.9,2218.3c-0.7-12.7-10.4-28.3-30.3-28.1c-16.5,0.1-28.2,12.8-29,28.1
				C-3346.4,2218.3-3326.7,2218.3-3306.9,2218.3z M-3365.8,2232.6c0.3,1.7,0.4,3.1,0.8,4.6c2,8.8,6.6,15.7,14.4,20.4
				c5.1,3.1,10.7,4.3,16.7,3.9c3.9-0.3,7.8-1.1,11.3-2.8c5.4-2.5,9.6-6.2,12.2-11.6c0.1-0.1,0.1-0.3,0.2-0.4c0,0,0.1-0.1,0.2-0.2
				c5.7,1.6,11.6,3.3,17.5,5c-0.2,0.5-0.4,0.8-0.5,1.2c-2.9,5.7-7,10.4-12.1,14.2c-6.9,5.1-14.7,8.1-23.2,9.3
				c-7,0.9-14,0.9-20.9-0.8c-17.8-4.4-29.8-15.4-35.8-32.7c-2.3-6.5-3-13.2-2.6-20c0.8-12.4,5.3-23.3,13.7-32.4
				c6.9-7.4,15.3-12,25.1-14.1c5.6-1.2,11.4-1.6,17.1-1.1c16.2,1.5,28.9,9,37.8,22.6c3.6,5.5,5.6,11.6,6.8,18
				c0.9,5.3,1.1,10.5,0.4,15.8c0,0.3-0.1,0.6-0.2,1.1C-3313.1,2232.6-3339.3,2232.6-3365.8,2232.6z"/>
			<path class="st3" d="M-3465.2,2127.8c0.6,0.1,1.1,0.2,1.7,0.2c17.8,1,33.4,7.3,46.9,19.1c3.2,2.8,6,5.9,8.6,9.2
				c0.2,0.3,0.4,0.5,0.6,0.8c-4.9,4.6-9.7,9.3-14.7,14c-0.3-0.4-0.6-0.7-0.8-1.1c-8.3-11.2-19.1-18.4-32.7-21.6
				c-5.7-1.3-11.4-1.5-17.2-0.9c-12.4,1.4-23.1,6.4-32,15.1c-7.7,7.5-12.7,16.5-15.2,26.9c-1.4,5.7-1.9,11.5-1.5,17.3
				c0.9,12.2,5.3,22.9,13,32.4c6.6,8.1,14.8,14.1,24.7,17.6c5.4,1.9,10.9,2.9,16.7,2.7c5.5-0.1,10.8-1.5,15.8-3.7
				c8.7-3.8,16-9.5,21.5-17.4c3.2-4.6,5.4-9.7,6.3-15.2c0.1-0.9,0.2-1.7,0.4-2.7c-3.1-0.1-6.2,0-9.2-0.1c-3,0-6,0-9,0
				c-3.1,0-6.1,0-9.1,0c-3,0-6,0-9,0c-0.3-0.9-0.3-18-0.1-19.2c19.6,0,39.3,0,59.1,0c0,0.3,0.1,0.6,0.1,0.9
				c-0.1,3.9,0.1,7.9-0.2,11.9c-1.1,16.2-6.5,30.7-17.4,42.9c-9.2,10.3-20.7,16.8-34.1,19.9c-6,1.4-12.2,2-18.4,1.9
				c-13.8-0.4-26.5-4.4-37.9-12.2c-17-11.6-27.8-27.5-32.3-47.6c-0.8-3.5-1.2-7-1.4-10.6c-0.1-1.2-0.3-2.4-0.4-3.5
				c0-0.8,0-1.6,0-2.4c0.1-1.1,0.3-2.3,0.4-3.4c0.3-4.8,1-9.5,2.2-14.1c7.9-31.3,35.5-55.4,69.3-56.9c0.4,0,0.8-0.1,1.3-0.2
				C-3467.9,2127.8-3466.6,2127.8-3465.2,2127.8z"/>
			<path class="st3" d="M-3114.3,2259.4c5.2,0,8.6-0.6,11.9-2c7-2.9,12-7.8,15.3-14.5c4.6-9.5,5.1-19.3,1.8-29.3
				c-2.2-6.7-6.2-12.3-12.1-16.3c-8.8-5.9-20.6-6.4-29.9-0.1c-4.9,3.3-8.5,7.6-11,12.9c-3.3,6.9-4.3,14.1-3.3,21.7
				c0.8,5.9,2.9,11.2,6.5,15.9C-3129.5,2255.3-3122,2259.2-3114.3,2259.4z M-3082.6,2316.5c-0.1-0.5-0.1-0.9-0.1-1.4
				c0-15.2,0-30.5,0-45.7c0-0.4,0-0.9,0-1.5c-0.4,0.3-0.7,0.4-1,0.6c-5.5,3.7-11.4,6.3-17.9,7.6c-5.3,1-10.6,1.2-15.9,0.8
				c-6-0.5-11.8-1.9-17.3-4.5c-12.5-6-20.9-15.6-25.4-28.6c-2.3-6.7-3.2-13.5-2.8-20.6c0.7-11.8,4.5-22.4,12.4-31.3
				c7.8-8.7,17.5-14.1,29.1-16c8.6-1.4,17.1-0.9,25.5,1.8c5.4,1.7,10.1,4.5,14.6,7.9c0.3,0.3,0.7,0.5,1.2,0.9c0-3.7,0-7.1,0-10.5
				c1.1-0.3,17.2-0.3,18.2,0c0,41.6,0,83.3,0,125.1c3.3,0,6.6,0,9.9,0c0,0.5,0.1,0.8,0.1,1.2c0,4.4,0,8.8,0,13.2
				c0,0.4-0.1,0.7-0.1,1.1C-3062.4,2316.5-3072.5,2316.5-3082.6,2316.5z"/>
			<path class="st3" d="M-3029,2168.4c1.5,0,3,0,4.4,0c0,5,0,10,0,15c-1,0.2-1.9,0.1-3.1,0.1c-0.1-1.7,0-3.4,0-5.1
				c0-1.7,0-3.4,0-5.1c-0.1,0-0.2,0-0.2,0c0,0-0.1,0-0.1,0c-1.3,2.6-2.5,5.3-3.8,8c-0.8,0-1.7,0-2.6,0c-1.3-2.7-2.5-5.4-3.8-8.1
				c-0.4,1.1-0.3,2.2-0.3,3.3c0,1.2,0,2.3,0,3.5c0,1.1,0,2.2,0,3.4c-1,0.3-2,0.1-2.9,0.1c-0.3-0.9-0.3-13.8-0.1-15.1
				c1.4-0.1,2.8,0,4.3-0.1c1.3,3,2.6,6.1,4.1,9.4C-3031.6,2174.5-3030.3,2171.4-3029,2168.4z"/>
			<path class="st3" d="M-3057,2168.3c4.4,0,8.6,0,12.9,0c0.2,1,0.1,1.9,0.1,3c-1.6,0-3.1,0-4.8,0c0,0.5-0.1,0.9-0.1,1.4
				c0,3.1,0,6.3,0,9.5c0,0.4,0,0.9,0,1.3c-1.1,0-2,0-3.1,0c0-4,0-7.9,0-12.1c-1.7,0-3.3-0.1-5-0.1
				C-3057,2170.3-3057,2169.4-3057,2168.3z"/>
		</g>
		<g class="st2">
			<path class="st4" d="M-3194.9,1478.8c-0.7-12.7-10.4-28.3-30.3-28.2c-16.5,0.1-28.2,12.8-29,28.2
				C-3234.4,1478.8-3214.7,1478.8-3194.9,1478.8z M-3253.8,1493.2c0.3,1.7,0.4,3.2,0.8,4.6c2,8.8,6.6,15.7,14.4,20.4
				c5.1,3.1,10.7,4.3,16.7,3.9c3.9-0.3,7.8-1.1,11.3-2.8c5.4-2.5,9.6-6.2,12.2-11.6c0.1-0.1,0.1-0.3,0.2-0.4c0,0,0.1-0.1,0.2-0.2
				c5.7,1.6,11.6,3.3,17.5,5c-0.2,0.5-0.4,0.8-0.5,1.2c-2.9,5.7-7,10.4-12.1,14.2c-6.9,5.1-14.7,8.1-23.2,9.3
				c-7,0.9-14,0.9-20.9-0.8c-17.8-4.4-29.8-15.4-35.8-32.7c-2.3-6.5-3-13.2-2.6-20c0.8-12.4,5.3-23.3,13.7-32.4
				c6.9-7.3,15.3-12,25.1-14.1c5.6-1.2,11.4-1.6,17.1-1.1c16.2,1.5,28.9,9,37.8,22.7c3.6,5.5,5.6,11.6,6.8,18
				c0.9,5.3,1.1,10.5,0.4,15.8c0,0.3-0.1,0.6-0.2,1.1C-3201.1,1493.2-3227.4,1493.2-3253.8,1493.2z"/>
			<path class="st4" d="M-3306.9,1478.8c-0.7-12.7-10.4-28.3-30.3-28.2c-16.5,0.1-28.2,12.8-29,28.2
				C-3346.4,1478.8-3326.7,1478.8-3306.9,1478.8z M-3365.8,1493.2c0.3,1.7,0.4,3.2,0.8,4.6c2,8.8,6.6,15.7,14.4,20.4
				c5.1,3.1,10.7,4.3,16.7,3.9c3.9-0.3,7.8-1.1,11.3-2.8c5.4-2.5,9.6-6.2,12.2-11.6c0.1-0.1,0.1-0.3,0.2-0.4c0,0,0.1-0.1,0.2-0.2
				c5.7,1.6,11.6,3.3,17.5,5c-0.2,0.5-0.4,0.8-0.5,1.2c-2.9,5.7-7,10.4-12.1,14.2c-6.9,5.1-14.7,8.1-23.2,9.3
				c-7,0.9-14,0.9-20.9-0.8c-17.8-4.4-29.8-15.4-35.8-32.7c-2.3-6.5-3-13.2-2.6-20c0.8-12.4,5.3-23.3,13.7-32.4
				c6.9-7.3,15.3-12,25.1-14.1c5.6-1.2,11.4-1.6,17.1-1.1c16.2,1.5,28.9,9,37.8,22.7c3.6,5.5,5.6,11.6,6.8,18
				c0.9,5.3,1.1,10.5,0.4,15.8c0,0.3-0.1,0.6-0.2,1.1C-3313.1,1493.2-3339.3,1493.2-3365.8,1493.2z"/>
			<path class="st4" d="M-3465.2,1388.4c0.6,0.1,1.1,0.2,1.7,0.2c17.8,1,33.4,7.3,46.9,19.1c3.2,2.8,6,5.9,8.6,9.2
				c0.2,0.3,0.4,0.5,0.6,0.8c-4.9,4.7-9.7,9.3-14.7,14c-0.3-0.4-0.6-0.7-0.8-1.1c-8.3-11.2-19.1-18.4-32.7-21.6
				c-5.7-1.3-11.4-1.5-17.2-0.9c-12.4,1.4-23.1,6.4-32,15.1c-7.7,7.5-12.7,16.5-15.2,26.9c-1.4,5.7-1.9,11.4-1.5,17.3
				c0.9,12.2,5.3,22.9,13,32.4c6.6,8.1,14.8,14.1,24.7,17.6c5.4,1.9,10.9,2.9,16.7,2.7c5.5-0.1,10.8-1.5,15.8-3.7
				c8.7-3.8,16-9.5,21.5-17.3c3.2-4.6,5.4-9.7,6.3-15.2c0.1-0.8,0.2-1.7,0.4-2.7c-3.1-0.1-6.2,0-9.2-0.1c-3,0-6,0-9,0
				c-3.1,0-6.1,0-9.1,0c-3,0-6,0-9,0c-0.3-0.9-0.3-18-0.1-19.2c19.6,0,39.3,0,59.1,0c0,0.3,0.1,0.6,0.1,0.9
				c-0.1,3.9,0.1,7.9-0.2,11.8c-1.1,16.2-6.5,30.7-17.4,42.9c-9.2,10.3-20.7,16.8-34.1,19.9c-6,1.4-12.2,2-18.4,1.9
				c-13.8-0.3-26.5-4.4-37.9-12.2c-17-11.6-27.8-27.5-32.3-47.6c-0.8-3.5-1.2-7-1.4-10.6c-0.1-1.2-0.3-2.3-0.4-3.5
				c0-0.8,0-1.6,0-2.4c0.1-1.1,0.3-2.3,0.4-3.4c0.3-4.8,1-9.5,2.2-14.2c7.9-31.3,35.5-55.3,69.3-56.9c0.4,0,0.8-0.1,1.3-0.2
				C-3467.9,1388.4-3466.6,1388.4-3465.2,1388.4z"/>
			<path class="st4" d="M-3114.3,1519.9c5.2,0,8.6-0.6,11.9-2c7-2.8,12-7.8,15.3-14.5c4.6-9.5,5.1-19.3,1.8-29.3
				c-2.2-6.7-6.2-12.3-12.1-16.3c-8.8-5.9-20.6-6.4-29.9-0.1c-4.9,3.3-8.5,7.6-11,12.9c-3.3,6.9-4.3,14.2-3.3,21.7
				c0.8,5.8,2.9,11.2,6.5,15.9C-3129.5,1515.8-3122,1519.7-3114.3,1519.9z M-3082.6,1577.1c-0.1-0.5-0.1-0.9-0.1-1.4
				c0-15.2,0-30.5,0-45.7c0-0.4,0-0.9,0-1.5c-0.4,0.3-0.7,0.4-1,0.6c-5.5,3.7-11.4,6.3-17.9,7.6c-5.3,1-10.6,1.2-15.9,0.8
				c-6-0.5-11.8-1.9-17.3-4.5c-12.5-6-20.9-15.6-25.4-28.6c-2.3-6.7-3.2-13.5-2.8-20.6c0.7-11.8,4.5-22.4,12.4-31.3
				c7.8-8.7,17.5-14.2,29.1-16c8.6-1.4,17.1-0.9,25.5,1.8c5.4,1.7,10.1,4.5,14.6,7.9c0.3,0.3,0.7,0.5,1.2,0.9c0-3.7,0-7.1,0-10.5
				c1.1-0.3,17.2-0.2,18.2,0c0,41.6,0,83.3,0,125.1c3.3,0,6.6,0,9.9,0c0,0.5,0.1,0.8,0.1,1.2c0,4.4,0,8.8,0,13.2
				c0,0.4-0.1,0.7-0.1,1.1C-3062.4,1577.1-3072.5,1577.1-3082.6,1577.1z"/>
			<path class="st4" d="M-3029,1429c1.5,0,3,0,4.4,0c0,5,0,10,0,15c-1,0.2-1.9,0.1-3.1,0.1c-0.1-1.7,0-3.4,0-5.1c0-1.7,0-3.4,0-5.1
				c-0.1,0-0.2,0-0.2,0c0,0-0.1,0-0.1,0c-1.3,2.6-2.5,5.3-3.8,8c-0.8,0-1.7,0-2.6,0c-1.3-2.7-2.5-5.4-3.8-8.1
				c-0.4,1.1-0.3,2.2-0.3,3.3c0,1.2,0,2.3,0,3.5c0,1.1,0,2.2,0,3.4c-1,0.3-2,0.1-2.9,0.1c-0.3-0.8-0.3-13.8-0.1-15.1
				c1.4-0.1,2.8,0,4.3-0.1c1.3,3,2.6,6.1,4.1,9.4C-3031.6,1435-3030.3,1432-3029,1429z"/>
			<path class="st4" d="M-3057,1428.9c4.4,0,8.6,0,12.9,0c0.2,1,0.1,1.9,0.1,3c-1.6,0-3.1,0-4.8,0c0,0.5-0.1,0.9-0.1,1.3
				c0,3.2,0,6.3,0,9.5c0,0.4,0,0.8,0,1.3c-1.1,0-2,0-3.1,0c0-4,0-7.9,0-12.1c-1.7,0-3.3-0.1-5-0.1
				C-3057,1430.8-3057,1429.9-3057,1428.9z"/>
		</g>
		<g class="st2">
			<path class="st5" d="M-3194.9,1088.1c-0.7-12.7-10.4-28.3-30.3-28.2c-16.5,0.1-28.2,12.8-29,28.2
				C-3234.4,1088.1-3214.7,1088.1-3194.9,1088.1z M-3253.8,1102.5c0.3,1.7,0.4,3.2,0.8,4.6c2,8.8,6.6,15.7,14.4,20.4
				c5.1,3.1,10.7,4.3,16.7,3.9c3.9-0.3,7.8-1.1,11.3-2.8c5.4-2.5,9.6-6.2,12.2-11.6c0.1-0.1,0.1-0.3,0.2-0.4c0,0,0.1-0.1,0.2-0.2
				c5.7,1.6,11.6,3.3,17.5,5c-0.2,0.5-0.4,0.8-0.5,1.2c-2.9,5.7-7,10.4-12.1,14.2c-6.9,5.1-14.7,8.1-23.2,9.3
				c-7,0.9-14,0.9-20.9-0.8c-17.8-4.4-29.8-15.4-35.8-32.7c-2.3-6.5-3-13.2-2.6-20c0.8-12.4,5.3-23.3,13.7-32.4
				c6.9-7.3,15.3-12,25.1-14.1c5.6-1.2,11.4-1.6,17.1-1.1c16.2,1.5,28.9,9,37.8,22.7c3.6,5.5,5.6,11.6,6.8,18
				c0.9,5.3,1.1,10.5,0.4,15.8c0,0.3-0.1,0.6-0.2,1.1C-3201.1,1102.5-3227.4,1102.5-3253.8,1102.5z"/>
			<path class="st5" d="M-3306.9,1088.1c-0.7-12.7-10.4-28.3-30.3-28.2c-16.5,0.1-28.2,12.8-29,28.2
				C-3346.4,1088.1-3326.7,1088.1-3306.9,1088.1z M-3365.8,1102.5c0.3,1.7,0.4,3.2,0.8,4.6c2,8.8,6.6,15.7,14.4,20.4
				c5.1,3.1,10.7,4.3,16.7,3.9c3.9-0.3,7.8-1.1,11.3-2.8c5.4-2.5,9.6-6.2,12.2-11.6c0.1-0.1,0.1-0.3,0.2-0.4c0,0,0.1-0.1,0.2-0.2
				c5.7,1.6,11.6,3.3,17.5,5c-0.2,0.5-0.4,0.8-0.5,1.2c-2.9,5.7-7,10.4-12.1,14.2c-6.9,5.1-14.7,8.1-23.2,9.3
				c-7,0.9-14,0.9-20.9-0.8c-17.8-4.4-29.8-15.4-35.8-32.7c-2.3-6.5-3-13.2-2.6-20c0.8-12.4,5.3-23.3,13.7-32.4
				c6.9-7.3,15.3-12,25.1-14.1c5.6-1.2,11.4-1.6,17.1-1.1c16.2,1.5,28.9,9,37.8,22.7c3.6,5.5,5.6,11.6,6.8,18
				c0.9,5.3,1.1,10.5,0.4,15.8c0,0.3-0.1,0.6-0.2,1.1C-3313.1,1102.5-3339.3,1102.5-3365.8,1102.5z"/>
			<path class="st5" d="M-3465.2,997.7c0.6,0.1,1.1,0.2,1.7,0.2c17.8,1,33.4,7.3,46.9,19c3.2,2.8,6,5.9,8.6,9.2
				c0.2,0.3,0.4,0.5,0.6,0.8c-4.9,4.7-9.7,9.3-14.7,14c-0.3-0.4-0.6-0.7-0.8-1.1c-8.3-11.2-19.1-18.4-32.7-21.6
				c-5.7-1.3-11.4-1.5-17.2-0.9c-12.4,1.4-23.1,6.4-32,15.1c-7.7,7.5-12.7,16.5-15.2,26.9c-1.4,5.7-1.9,11.4-1.5,17.3
				c0.9,12.2,5.3,22.9,13,32.4c6.6,8.1,14.8,14.1,24.7,17.6c5.4,1.9,10.9,2.9,16.7,2.7c5.5-0.1,10.8-1.5,15.8-3.7
				c8.7-3.8,16-9.5,21.5-17.3c3.2-4.6,5.4-9.7,6.3-15.2c0.1-0.8,0.2-1.7,0.4-2.7c-3.1-0.1-6.2,0-9.2-0.1c-3,0-6,0-9,0
				c-3.1,0-6.1,0-9.1,0c-3,0-6,0-9,0c-0.3-0.9-0.3-18-0.1-19.2c19.6,0,39.3,0,59.1,0c0,0.3,0.1,0.6,0.1,0.9
				c-0.1,3.9,0.1,7.9-0.2,11.8c-1.1,16.2-6.5,30.7-17.4,42.9c-9.2,10.3-20.7,16.8-34.1,19.9c-6,1.4-12.2,2-18.4,1.9
				c-13.8-0.3-26.5-4.4-37.9-12.2c-17-11.6-27.8-27.5-32.3-47.6c-0.8-3.5-1.2-7-1.4-10.6c-0.1-1.2-0.3-2.3-0.4-3.5
				c0-0.8,0-1.6,0-2.4c0.1-1.1,0.3-2.3,0.4-3.4c0.3-4.8,1-9.5,2.2-14.2c7.9-31.3,35.5-55.3,69.3-56.9c0.4,0,0.8-0.1,1.3-0.2
				C-3467.9,997.7-3466.6,997.7-3465.2,997.7z"/>
			<path class="st5" d="M-3114.3,1129.2c5.2,0,8.6-0.6,11.9-2c7-2.8,12-7.8,15.3-14.5c4.6-9.5,5.1-19.3,1.8-29.3
				c-2.2-6.7-6.2-12.3-12.1-16.3c-8.8-5.9-20.6-6.4-29.9-0.1c-4.9,3.3-8.5,7.6-11,12.9c-3.3,6.9-4.3,14.2-3.3,21.7
				c0.8,5.8,2.9,11.2,6.5,15.9C-3129.5,1125.1-3122,1129.1-3114.3,1129.2z M-3082.6,1186.3c-0.1-0.5-0.1-0.9-0.1-1.4
				c0-15.2,0-30.5,0-45.7c0-0.4,0-0.9,0-1.5c-0.4,0.3-0.7,0.4-1,0.6c-5.5,3.7-11.4,6.3-17.9,7.6c-5.3,1-10.6,1.2-15.9,0.8
				c-6-0.5-11.8-1.9-17.3-4.5c-12.5-6-20.9-15.6-25.4-28.6c-2.3-6.7-3.2-13.5-2.8-20.6c0.7-11.8,4.5-22.4,12.4-31.3
				c7.8-8.7,17.5-14.2,29.1-16c8.6-1.4,17.1-0.9,25.5,1.8c5.4,1.7,10.1,4.5,14.6,7.9c0.3,0.3,0.7,0.5,1.2,0.9c0-3.7,0-7.1,0-10.5
				c1.1-0.3,17.2-0.2,18.2,0c0,41.6,0,83.3,0,125.1c3.3,0,6.6,0,9.9,0c0,0.5,0.1,0.8,0.1,1.2c0,4.4,0,8.8,0,13.2
				c0,0.4-0.1,0.7-0.1,1.1C-3062.4,1186.3-3072.5,1186.3-3082.6,1186.3z"/>
			<path class="st5" d="M-3029,1038.3c1.5,0,3,0,4.4,0c0,5,0,10,0,15c-1,0.2-1.9,0.1-3.1,0.1c-0.1-1.7,0-3.4,0-5.1
				c0-1.7,0-3.4,0-5.1c-0.1,0-0.2,0-0.2,0c0,0-0.1,0-0.1,0c-1.3,2.6-2.5,5.3-3.8,8c-0.8,0-1.7,0-2.6,0c-1.3-2.7-2.5-5.4-3.8-8.1
				c-0.4,1.1-0.3,2.2-0.3,3.3c0,1.2,0,2.3,0,3.5c0,1.1,0,2.2,0,3.4c-1,0.3-2,0.1-2.9,0.1c-0.3-0.8-0.3-13.8-0.1-15.1
				c1.4-0.1,2.8,0,4.3-0.1c1.3,3,2.6,6.1,4.1,9.4C-3031.6,1044.3-3030.3,1041.3-3029,1038.3z"/>
			<path class="st5" d="M-3057,1038.2c4.4,0,8.6,0,12.9,0c0.2,1,0.1,1.9,0.1,3c-1.6,0-3.1,0-4.8,0c0,0.5-0.1,0.9-0.1,1.3
				c0,3.2,0,6.3,0,9.5c0,0.4,0,0.8,0,1.3c-1.1,0-2,0-3.1,0c0-4,0-7.9,0-12.1c-1.7,0-3.3-0.1-5-0.1
				C-3057,1040.2-3057,1039.2-3057,1038.2z"/>
		</g>
		<g class="st2">
			<path class="st6" d="M-3194.9,634.9c-0.7-12.7-10.4-28.3-30.3-28.2c-16.5,0.1-28.2,12.8-29,28.2
				C-3234.4,634.9-3214.7,634.9-3194.9,634.9z M-3253.8,649.3c0.3,1.7,0.4,3.2,0.8,4.6c2,8.8,6.6,15.7,14.4,20.4
				c5.1,3.1,10.7,4.3,16.7,3.9c3.9-0.3,7.8-1.1,11.3-2.8c5.4-2.5,9.6-6.2,12.2-11.6c0.1-0.1,0.1-0.3,0.2-0.4c0,0,0.1,0,0.2-0.2
				c5.7,1.6,11.6,3.3,17.5,5c-0.2,0.5-0.4,0.8-0.5,1.2c-2.9,5.7-7,10.4-12.1,14.2c-6.9,5.1-14.7,8.1-23.2,9.3
				c-7,0.9-14,0.9-20.9-0.8c-17.8-4.4-29.8-15.4-35.8-32.7c-2.3-6.5-3-13.2-2.6-20c0.8-12.4,5.3-23.3,13.7-32.4
				c6.9-7.3,15.3-12,25.1-14.1c5.6-1.2,11.4-1.6,17.1-1c16.2,1.5,28.9,9,37.8,22.7c3.6,5.5,5.6,11.6,6.8,18
				c0.9,5.3,1.1,10.5,0.4,15.8c0,0.3-0.1,0.6-0.2,1.1C-3201.1,649.3-3227.4,649.3-3253.8,649.3z"/>
			<path class="st6" d="M-3306.9,634.9c-0.7-12.7-10.4-28.3-30.3-28.2c-16.5,0.1-28.2,12.8-29,28.2
				C-3346.4,634.9-3326.7,634.9-3306.9,634.9z M-3365.8,649.3c0.3,1.7,0.4,3.2,0.8,4.6c2,8.8,6.6,15.7,14.4,20.4
				c5.1,3.1,10.7,4.3,16.7,3.9c3.9-0.3,7.8-1.1,11.3-2.8c5.4-2.5,9.6-6.2,12.2-11.6c0.1-0.1,0.1-0.3,0.2-0.4c0,0,0.1,0,0.2-0.2
				c5.7,1.6,11.6,3.3,17.5,5c-0.2,0.5-0.4,0.8-0.5,1.2c-2.9,5.7-7,10.4-12.1,14.2c-6.9,5.1-14.7,8.1-23.2,9.3
				c-7,0.9-14,0.9-20.9-0.8c-17.8-4.4-29.8-15.4-35.8-32.7c-2.3-6.5-3-13.2-2.6-20c0.8-12.4,5.3-23.3,13.7-32.4
				c6.9-7.3,15.3-12,25.1-14.1c5.6-1.2,11.4-1.6,17.1-1c16.2,1.5,28.9,9,37.8,22.7c3.6,5.5,5.6,11.6,6.8,18
				c0.9,5.3,1.1,10.5,0.4,15.8c0,0.3-0.1,0.6-0.2,1.1C-3313.1,649.3-3339.3,649.3-3365.8,649.3z"/>
			<path class="st6" d="M-3465.2,544.5c0.6,0.1,1.1,0.2,1.7,0.2c17.8,1,33.4,7.3,46.9,19c3.2,2.8,6,5.9,8.6,9.2
				c0.2,0.3,0.4,0.5,0.6,0.8c-4.9,4.7-9.7,9.3-14.7,14c-0.3-0.4-0.6-0.7-0.8-1.1c-8.3-11.2-19.1-18.4-32.7-21.6
				c-5.7-1.3-11.4-1.5-17.2-0.9c-12.4,1.4-23.1,6.4-32,15.1c-7.7,7.5-12.7,16.5-15.2,26.9c-1.4,5.7-1.9,11.5-1.5,17.3
				c0.9,12.2,5.3,23,13,32.4c6.6,8.1,14.8,14.1,24.7,17.6c5.4,1.9,10.9,2.9,16.7,2.7c5.5-0.1,10.8-1.5,15.8-3.7
				c8.7-3.8,16-9.5,21.5-17.3c3.2-4.6,5.4-9.7,6.3-15.2c0.1-0.8,0.2-1.7,0.4-2.7c-3.1-0.1-6.2,0-9.2,0c-3,0-6,0-9,0
				c-3.1,0-6.1,0-9.1,0c-3,0-6,0-9,0c-0.3-0.9-0.3-18-0.1-19.2c19.6,0,39.3,0,59.1,0c0,0.3,0.1,0.6,0.1,1c-0.1,4,0.1,7.9-0.2,11.8
				c-1.1,16.2-6.5,30.7-17.4,42.9c-9.2,10.3-20.7,16.8-34.1,19.9c-6,1.4-12.2,2-18.4,1.9c-13.8-0.3-26.5-4.4-37.9-12.2
				c-17-11.6-27.8-27.5-32.3-47.6c-0.8-3.5-1.2-7-1.4-10.5c-0.1-1.2-0.3-2.3-0.4-3.5c0-0.8,0-1.6,0-2.4c0.1-1.1,0.3-2.3,0.4-3.4
				c0.3-4.8,1-9.5,2.2-14.2c7.9-31.3,35.5-55.3,69.3-56.9c0.4,0,0.8-0.1,1.3-0.2C-3467.9,544.5-3466.6,544.5-3465.2,544.5z"/>
			<path class="st6" d="M-3114.3,676c5.2,0,8.6-0.6,11.9-2c7-2.8,12-7.8,15.3-14.5c4.6-9.5,5.1-19.3,1.8-29.3
				c-2.2-6.7-6.2-12.3-12.1-16.3c-8.8-5.9-20.6-6.4-29.9-0.1c-4.9,3.3-8.5,7.6-11,12.9c-3.3,6.9-4.3,14.2-3.3,21.7
				c0.8,5.8,2.9,11.2,6.5,16C-3129.5,671.9-3122,675.8-3114.3,676z M-3082.6,733.1c-0.1-0.5-0.1-0.9-0.1-1.4c0-15.2,0-30.5,0-45.7
				c0-0.4,0-0.9,0-1.5c-0.4,0.3-0.7,0.5-1,0.6c-5.5,3.7-11.4,6.3-17.9,7.6c-5.3,1-10.6,1.2-15.9,0.8c-6-0.5-11.8-1.9-17.3-4.5
				c-12.5-6-20.9-15.6-25.4-28.6c-2.3-6.7-3.2-13.5-2.8-20.6c0.7-11.8,4.5-22.4,12.4-31.3c7.8-8.7,17.5-14.2,29.1-16
				c8.6-1.4,17.1-0.9,25.5,1.8c5.4,1.7,10.1,4.5,14.6,7.9c0.3,0.3,0.7,0.5,1.2,0.9c0-3.7,0-7.1,0-10.5c1.1-0.3,17.2-0.2,18.2,0
				c0,41.6,0,83.3,0,125.1c3.3,0,6.6,0,9.9,0c0,0.5,0.1,0.8,0.1,1.2c0,4.4,0,8.8,0,13.2c0,0.4-0.1,0.7-0.1,1.1
				C-3062.4,733.1-3072.5,733.1-3082.6,733.1z"/>
			<path class="st6" d="M-3029,585.1c1.5,0,3,0,4.4,0c0,5,0,10,0,15c-1,0.2-1.9,0.1-3.1,0.1c-0.1-1.7,0-3.4,0-5.1c0-1.7,0-3.4,0-5.1
				c-0.1,0-0.2,0-0.2,0c0,0-0.1,0-0.1,0c-1.3,2.6-2.5,5.3-3.8,8c-0.8,0-1.7,0-2.6,0c-1.3-2.7-2.5-5.4-3.8-8.1
				c-0.4,1.1-0.3,2.2-0.3,3.3c0,1.2,0,2.3,0,3.5c0,1.1,0,2.2,0,3.4c-1,0.3-2,0.1-2.9,0.1c-0.3-0.8-0.3-13.8-0.1-15.1
				c1.4-0.1,2.8,0,4.3-0.1c1.3,3,2.6,6.1,4.1,9.4C-3031.6,591.1-3030.3,588.1-3029,585.1z"/>
			<path class="st6" d="M-3057,585c4.4,0,8.6,0,12.9,0c0.2,1,0.1,1.9,0.1,3c-1.6,0-3.1,0-4.8,0c0,0.5-0.1,0.9-0.1,1.3
				c0,3.2,0,6.3,0,9.5c0,0.4,0,0.8,0,1.3c-1.1,0-2,0-3.1,0c0-4,0-8,0-12.1c-1.7,0-3.3,0-5-0.1C-3057,586.9-3057,586-3057,585z"/>
		</g>
		<g class="st2">
			<g>
				<path class="st7" d="M-3194.9,210.8c-0.7-12.7-10.4-28.3-30.3-28.1c-16.5,0.1-28.2,12.8-29,28.1
					C-3234.4,210.8-3214.7,210.8-3194.9,210.8z M-3253.8,225.1c0.3,1.7,0.4,3.1,0.8,4.6c2,8.8,6.6,15.7,14.4,20.4
					c5.1,3.1,10.7,4.3,16.7,3.9c3.9-0.3,7.8-1.1,11.3-2.8c5.4-2.5,9.6-6.2,12.2-11.6c0.1-0.1,0.1-0.3,0.2-0.4c0,0,0.1-0.1,0.2-0.2
					c5.7,1.6,11.6,3.3,17.5,5c-0.2,0.5-0.4,0.8-0.5,1.2c-2.9,5.7-7,10.4-12.1,14.2c-6.9,5.1-14.7,8.1-23.2,9.3
					c-7,0.9-14,0.9-20.9-0.8c-17.8-4.4-29.8-15.4-35.8-32.7c-2.3-6.5-3-13.2-2.6-20c0.8-12.4,5.3-23.3,13.7-32.4
					c6.9-7.4,15.3-12,25.1-14.1c5.6-1.2,11.4-1.6,17.1-1.1c16.2,1.5,28.9,9,37.8,22.6c3.6,5.5,5.6,11.6,6.8,18
					c0.9,5.3,1.1,10.5,0.4,15.8c0,0.3-0.1,0.6-0.2,1.1C-3201.1,225.1-3227.4,225.1-3253.8,225.1z"/>
				<path class="st7" d="M-3306.9,210.8c-0.7-12.7-10.4-28.3-30.3-28.1c-16.5,0.1-28.2,12.8-29,28.1
					C-3346.4,210.8-3326.7,210.8-3306.9,210.8z M-3365.8,225.1c0.3,1.7,0.4,3.1,0.8,4.6c2,8.8,6.6,15.7,14.4,20.4
					c5.1,3.1,10.7,4.3,16.7,3.9c3.9-0.3,7.8-1.1,11.3-2.8c5.4-2.5,9.6-6.2,12.2-11.6c0.1-0.1,0.1-0.3,0.2-0.4c0,0,0.1-0.1,0.2-0.2
					c5.7,1.6,11.6,3.3,17.5,5c-0.2,0.5-0.4,0.8-0.5,1.2c-2.9,5.7-7,10.4-12.1,14.2c-6.9,5.1-14.7,8.1-23.2,9.3
					c-7,0.9-14,0.9-20.9-0.8c-17.8-4.4-29.8-15.4-35.8-32.7c-2.3-6.5-3-13.2-2.6-20c0.8-12.4,5.3-23.3,13.7-32.4
					c6.9-7.4,15.3-12,25.1-14.1c5.6-1.2,11.4-1.6,17.1-1.1c16.2,1.5,28.9,9,37.8,22.6c3.6,5.5,5.6,11.6,6.8,18
					c0.9,5.3,1.1,10.5,0.4,15.8c0,0.3-0.1,0.6-0.2,1.1C-3313.1,225.1-3339.3,225.1-3365.8,225.1z"/>
				<path class="st7" d="M-3465.2,120.3c0.6,0.1,1.1,0.2,1.7,0.2c17.8,1,33.4,7.3,46.9,19c3.2,2.8,6,5.9,8.6,9.2
					c0.2,0.3,0.4,0.5,0.6,0.8c-4.9,4.6-9.7,9.3-14.7,14c-0.3-0.4-0.6-0.7-0.8-1.1c-8.3-11.2-19.1-18.4-32.7-21.6
					c-5.7-1.3-11.4-1.5-17.2-0.9c-12.4,1.4-23.1,6.4-32,15.1c-7.7,7.5-12.7,16.5-15.2,26.9c-1.4,5.7-1.9,11.5-1.5,17.3
					c0.9,12.2,5.3,22.9,13,32.4c6.6,8.1,14.8,14.1,24.7,17.6c5.4,1.9,10.9,2.9,16.7,2.7c5.5-0.1,10.8-1.5,15.8-3.7
					c8.7-3.8,16-9.5,21.5-17.4c3.2-4.6,5.4-9.7,6.3-15.2c0.1-0.9,0.2-1.7,0.4-2.7c-3.1-0.1-6.2,0-9.2-0.1c-3,0-6,0-9,0
					c-3.1,0-6.1,0-9.1,0c-3,0-6,0-9,0c-0.3-0.9-0.3-18-0.1-19.2c19.6,0,39.3,0,59.1,0c0,0.3,0.1,0.6,0.1,0.9
					c-0.1,3.9,0.1,7.9-0.2,11.9c-1.1,16.2-6.5,30.7-17.4,42.9c-9.2,10.3-20.7,16.8-34.1,19.9c-6,1.4-12.2,2-18.4,1.9
					c-13.8-0.4-26.5-4.4-37.9-12.2c-17-11.6-27.8-27.5-32.3-47.6c-0.8-3.5-1.2-7-1.4-10.6c-0.1-1.2-0.3-2.4-0.4-3.5
					c0-0.8,0-1.6,0-2.4c0.1-1.1,0.3-2.3,0.4-3.4c0.3-4.8,1-9.5,2.2-14.1c7.9-31.3,35.5-55.3,69.3-56.9c0.4,0,0.8-0.1,1.3-0.2
					C-3467.9,120.3-3466.6,120.3-3465.2,120.3z"/>
				<path class="st7" d="M-3114.3,251.8c5.2,0,8.6-0.6,11.9-2c7-2.9,12-7.8,15.3-14.5c4.6-9.5,5.1-19.3,1.8-29.3
					c-2.2-6.7-6.2-12.3-12.1-16.3c-8.8-5.9-20.6-6.4-29.9-0.1c-4.9,3.3-8.5,7.6-11,12.9c-3.3,6.9-4.3,14.1-3.3,21.7
					c0.8,5.9,2.9,11.2,6.5,15.9C-3129.5,247.7-3122,251.6-3114.3,251.8z M-3082.6,309c-0.1-0.5-0.1-0.9-0.1-1.4
					c0-15.2,0-30.5,0-45.7c0-0.4,0-0.9,0-1.5c-0.4,0.3-0.7,0.5-1,0.6c-5.5,3.7-11.4,6.3-17.9,7.6c-5.3,1-10.6,1.2-15.9,0.8
					c-6-0.5-11.8-1.9-17.3-4.5c-12.5-6-20.9-15.6-25.4-28.6c-2.3-6.7-3.2-13.5-2.8-20.6c0.7-11.8,4.5-22.4,12.4-31.3
					c7.8-8.7,17.5-14.1,29.1-16c8.6-1.4,17.1-0.9,25.5,1.8c5.4,1.7,10.1,4.5,14.6,7.9c0.3,0.3,0.7,0.5,1.2,0.9c0-3.7,0-7.1,0-10.5
					c1.1-0.3,17.2-0.2,18.2,0c0,41.6,0,83.3,0,125.1c3.3,0,6.6,0,9.9,0c0,0.5,0.1,0.8,0.1,1.2c0,4.4,0,8.8,0,13.2
					c0,0.4-0.1,0.7-0.1,1.1C-3062.4,309-3072.5,309-3082.6,309z"/>
				<path class="st7" d="M-3029,160.9c1.5,0,3,0,4.4,0c0,5,0,10,0,15c-1,0.2-1.9,0.1-3.1,0.1c-0.1-1.7,0-3.4,0-5.1
					c0-1.7,0-3.4,0-5.1c-0.1,0-0.2,0-0.2,0c0,0-0.1,0-0.1,0c-1.3,2.6-2.5,5.3-3.8,8c-0.8,0-1.7,0-2.6,0c-1.3-2.7-2.5-5.4-3.8-8.1
					c-0.4,1.1-0.3,2.2-0.3,3.3c0,1.2,0,2.3,0,3.5c0,1.1,0,2.2,0,3.4c-1,0.3-2,0.1-2.9,0.1c-0.3-0.9-0.3-13.8-0.1-15.1
					c1.4-0.1,2.8,0,4.3-0.1c1.3,3,2.6,6.1,4.1,9.4C-3031.6,166.9-3030.3,163.9-3029,160.9z"/>
				<path class="st7" d="M-3057,160.8c4.4,0,8.6,0,12.9,0c0.2,1,0.1,1.9,0.1,3c-1.6,0-3.1,0-4.8,0c0,0.5-0.1,0.9-0.1,1.4
					c0,3.1,0,6.3,0,9.5c0,0.4,0,0.9,0,1.3c-1.1,0-2,0-3.1,0c0-4,0-7.9,0-12.1c-1.7,0-3.3-0.1-5-0.1
					C-3057,162.8-3057,161.8-3057,160.8z"/>
			</g>
		</g>
		<g class="st2">
			<path class="st8" d="M-3194.9,1849.4c-0.7-12.7-10.4-28.3-30.3-28.2c-16.5,0.1-28.2,12.8-29,28.2
				C-3234.4,1849.4-3214.7,1849.4-3194.9,1849.4z M-3253.8,1863.8c0.3,1.7,0.4,3.2,0.8,4.6c2,8.8,6.6,15.7,14.4,20.4
				c5.1,3.1,10.7,4.3,16.7,3.9c3.9-0.3,7.8-1.1,11.3-2.8c5.4-2.5,9.6-6.2,12.2-11.6c0.1-0.1,0.1-0.3,0.2-0.4c0,0,0.1-0.1,0.2-0.2
				c5.7,1.6,11.6,3.3,17.5,5c-0.2,0.5-0.4,0.8-0.5,1.2c-2.9,5.7-7,10.4-12.1,14.2c-6.9,5.1-14.7,8.1-23.2,9.3
				c-7,0.9-14,0.9-20.9-0.8c-17.8-4.4-29.8-15.4-35.8-32.7c-2.3-6.5-3-13.2-2.6-20c0.8-12.4,5.3-23.3,13.7-32.4
				c6.9-7.3,15.3-12,25.1-14.1c5.6-1.2,11.4-1.6,17.1-1.1c16.2,1.5,28.9,9,37.8,22.7c3.6,5.5,5.6,11.6,6.8,18
				c0.9,5.3,1.1,10.5,0.4,15.8c0,0.3-0.1,0.6-0.2,1.1C-3201.1,1863.8-3227.4,1863.8-3253.8,1863.8z"/>
			<path class="st8" d="M-3306.9,1849.4c-0.7-12.7-10.4-28.3-30.3-28.2c-16.5,0.1-28.2,12.8-29,28.2
				C-3346.4,1849.4-3326.7,1849.4-3306.9,1849.4z M-3365.8,1863.8c0.3,1.7,0.4,3.2,0.8,4.6c2,8.8,6.6,15.7,14.4,20.4
				c5.1,3.1,10.7,4.3,16.7,3.9c3.9-0.3,7.8-1.1,11.3-2.8c5.4-2.5,9.6-6.2,12.2-11.6c0.1-0.1,0.1-0.3,0.2-0.4c0,0,0.1-0.1,0.2-0.2
				c5.7,1.6,11.6,3.3,17.5,5c-0.2,0.5-0.4,0.8-0.5,1.2c-2.9,5.7-7,10.4-12.1,14.2c-6.9,5.1-14.7,8.1-23.2,9.3
				c-7,0.9-14,0.9-20.9-0.8c-17.8-4.4-29.8-15.4-35.8-32.7c-2.3-6.5-3-13.2-2.6-20c0.8-12.4,5.3-23.3,13.7-32.4
				c6.9-7.3,15.3-12,25.1-14.1c5.6-1.2,11.4-1.6,17.1-1.1c16.2,1.5,28.9,9,37.8,22.7c3.6,5.5,5.6,11.6,6.8,18
				c0.9,5.3,1.1,10.5,0.4,15.8c0,0.3-0.1,0.6-0.2,1.1C-3313.1,1863.8-3339.3,1863.8-3365.8,1863.8z"/>
			<path class="st8" d="M-3465.2,1759c0.6,0.1,1.1,0.2,1.7,0.2c17.8,1,33.4,7.3,46.9,19.1c3.2,2.8,6,5.9,8.6,9.2
				c0.2,0.3,0.4,0.5,0.6,0.8c-4.9,4.7-9.7,9.3-14.7,14c-0.3-0.4-0.6-0.7-0.8-1.1c-8.3-11.2-19.1-18.4-32.7-21.6
				c-5.7-1.3-11.4-1.5-17.2-0.9c-12.4,1.4-23.1,6.4-32,15.1c-7.7,7.5-12.7,16.5-15.2,26.9c-1.4,5.7-1.9,11.4-1.5,17.3
				c0.9,12.2,5.3,22.9,13,32.4c6.6,8.1,14.8,14.1,24.7,17.6c5.4,1.9,10.9,2.9,16.7,2.7c5.5-0.1,10.8-1.5,15.8-3.7
				c8.7-3.8,16-9.5,21.5-17.3c3.2-4.6,5.4-9.7,6.3-15.2c0.1-0.8,0.2-1.7,0.4-2.7c-3.1-0.1-6.2,0-9.2-0.1c-3,0-6,0-9,0
				c-3.1,0-6.1,0-9.1,0c-3,0-6,0-9,0c-0.3-0.9-0.3-18-0.1-19.2c19.6,0,39.3,0,59.1,0c0,0.3,0.1,0.6,0.1,0.9
				c-0.1,3.9,0.1,7.9-0.2,11.8c-1.1,16.2-6.5,30.7-17.4,42.9c-9.2,10.3-20.7,16.8-34.1,19.9c-6,1.4-12.2,2-18.4,1.9
				c-13.8-0.3-26.5-4.4-37.9-12.2c-17-11.6-27.8-27.5-32.3-47.6c-0.8-3.5-1.2-7-1.4-10.6c-0.1-1.2-0.3-2.3-0.4-3.5
				c0-0.8,0-1.6,0-2.4c0.1-1.1,0.3-2.3,0.4-3.4c0.3-4.8,1-9.5,2.2-14.2c7.9-31.3,35.5-55.3,69.3-56.9c0.4,0,0.8-0.1,1.3-0.2
				C-3467.9,1759-3466.6,1759-3465.2,1759z"/>
			<path class="st8" d="M-3114.3,1890.5c5.2,0,8.6-0.6,11.9-2c7-2.8,12-7.8,15.3-14.5c4.6-9.5,5.1-19.3,1.8-29.3
				c-2.2-6.7-6.2-12.3-12.1-16.3c-8.8-5.9-20.6-6.4-29.9-0.1c-4.9,3.3-8.5,7.6-11,12.9c-3.3,6.9-4.3,14.2-3.3,21.7
				c0.8,5.8,2.9,11.2,6.5,15.9C-3129.5,1886.4-3122,1890.3-3114.3,1890.5z M-3082.6,1947.7c-0.1-0.5-0.1-0.9-0.1-1.4
				c0-15.2,0-30.5,0-45.7c0-0.4,0-0.9,0-1.5c-0.4,0.3-0.7,0.4-1,0.6c-5.5,3.7-11.4,6.3-17.9,7.6c-5.3,1-10.6,1.2-15.9,0.8
				c-6-0.5-11.8-1.9-17.3-4.5c-12.5-6-20.9-15.6-25.4-28.6c-2.3-6.7-3.2-13.5-2.8-20.6c0.7-11.8,4.5-22.4,12.4-31.3
				c7.8-8.7,17.5-14.2,29.1-16c8.6-1.4,17.1-0.9,25.5,1.8c5.4,1.7,10.1,4.5,14.6,7.9c0.3,0.3,0.7,0.5,1.2,0.9c0-3.7,0-7.1,0-10.5
				c1.1-0.3,17.2-0.2,18.2,0c0,41.6,0,83.3,0,125.1c3.3,0,6.6,0,9.9,0c0,0.5,0.1,0.8,0.1,1.2c0,4.4,0,8.8,0,13.2
				c0,0.4-0.1,0.7-0.1,1.1C-3062.4,1947.7-3072.5,1947.7-3082.6,1947.7z"/>
			<path class="st8" d="M-3029,1799.6c1.5,0,3,0,4.4,0c0,5,0,10,0,15c-1,0.2-1.9,0.1-3.1,0.1c-0.1-1.7,0-3.4,0-5.1
				c0-1.7,0-3.4,0-5.1c-0.1,0-0.2,0-0.2,0c0,0-0.1,0-0.1,0c-1.3,2.6-2.5,5.3-3.8,8c-0.8,0-1.7,0-2.6,0c-1.3-2.7-2.5-5.4-3.8-8.1
				c-0.4,1.1-0.3,2.2-0.3,3.3c0,1.2,0,2.3,0,3.5c0,1.1,0,2.2,0,3.4c-1,0.3-2,0.1-2.9,0.1c-0.3-0.8-0.3-13.8-0.1-15.1
				c1.4-0.1,2.8,0,4.3-0.1c1.3,3,2.6,6.1,4.1,9.4C-3031.6,1805.6-3030.3,1802.6-3029,1799.6z"/>
			<path class="st8" d="M-3057,1799.5c4.4,0,8.6,0,12.9,0c0.2,1,0.1,1.9,0.1,3c-1.6,0-3.1,0-4.8,0c0,0.5-0.1,0.9-0.1,1.3
				c0,3.2,0,6.3,0,9.5c0,0.4,0,0.8,0,1.3c-1.1,0-2,0-3.1,0c0-4,0-7.9,0-12.1c-1.7,0-3.3-0.1-5-0.1
				C-3057,1801.4-3057,1800.5-3057,1799.5z"/>
		</g>
	</g>
</g>
</svg>
