<svg width="39px" height="38px" viewBox="0 0 39 42" fill="none" xmlns="http://www.w3.org/2000/svg" class="sc-jzJRlG diBhIi"><path fill-rule="evenodd" clip-rule="evenodd" d="M18.7564 0.0159158C15.9905 0.133405 13.4381 0.774639 10.9922 1.96648C8.99528 2.93956 7.3124 4.13408 5.75717 5.68233C2.30728 9.11684 0.309965 13.5688 0.033233 18.4409C-0.0105925 19.2126 -0.0113079 37.0118 0.0324865 37.4036C0.107727 38.0769 0.272609 38.6245 0.580321 39.2229C0.83584 39.7199 1.17649 40.1725 1.60856 40.5892C2.31496 41.2703 3.14263 41.7033 4.16866 41.9283L4.49525 42H19.4718C33.8048 42 34.461 41.9976 34.7419 41.9437C35.1457 41.8662 35.8162 41.641 36.1561 41.4686C37.7034 40.6841 38.7358 39.2305 38.9583 37.5233C39.0015 37.1916 39.0055 36.1201 38.9954 27.6652C38.9872 20.8676 38.974 18.0868 38.9486 17.8532C38.7899 16.3878 38.6133 15.4144 38.3021 14.2885C36.7018 8.49902 32.4481 3.72043 26.8673 1.44274C24.3318 0.407918 21.4524 -0.0986226 18.7564 0.0159158ZM18.4752 11.9135L18.4738 21.2228L17.9443 21.58C17.653 21.7764 17.1991 22.0839 16.9356 22.2633C16.6721 22.4426 15.8857 22.9762 15.1881 23.4489C14.4905 23.9217 13.8078 24.3847 13.6709 24.4779C12.9979 24.936 11.3646 26.0423 11.3303 26.0632C11.2993 26.0822 11.2915 23.9391 11.2915 15.3882V4.68947L11.6201 4.51813C13.7214 3.42241 16.1176 2.7481 18.4065 2.60843L18.4765 2.60415L18.4752 11.9135ZM21.2292 2.66741C23.2205 2.85748 25.2514 3.44756 27.107 4.37521L27.6988 4.67105L27.7066 16.5401L27.7145 28.4092L26.7735 29.0426C26.256 29.391 25.3287 30.0146 24.7128 30.4283C24.097 30.842 22.9282 31.6278 22.1156 32.1744C21.3031 32.721 20.6137 33.1818 20.5838 33.1984C20.532 33.2271 20.5293 32.4902 20.5293 17.9148V2.60107L20.7082 2.61791C20.8066 2.62716 21.041 2.64946 21.2292 2.66741ZM9.19976 27.5006C9.17836 27.5214 7.68419 28.5395 5.87938 29.7632L2.59791 31.9881L2.58877 25.5496C2.57956 19.0525 2.58705 18.4764 2.69278 17.5581C3.20102 13.1436 5.41179 9.11718 8.84981 6.34447L9.22305 6.04347L9.23086 16.7532C9.23711 25.295 9.23083 27.4706 9.19976 27.5006ZM30.119 6.30723C31.492 7.41525 32.7043 8.75114 33.6635 10.2131C34.0205 10.7573 34.4068 11.4245 34.3948 11.4765C34.387 11.5106 29.8221 14.8717 29.7835 14.8717C29.7745 14.8717 29.7672 12.8871 29.7672 10.4616C29.7672 8.03602 29.7751 6.05148 29.7847 6.05148C29.7943 6.05148 29.9447 6.16657 30.119 6.30723ZM35.4237 13.7303C35.815 14.8184 36.0672 15.8119 36.235 16.9263C36.322 17.5041 36.366 17.9231 36.407 18.5675C36.4198 18.7678 36.4271 20.2417 36.4243 22.0474L36.4235 22.5613L35.1404 23.4235C30.8229 26.3246 29.7926 27.015 29.7806 27.015C29.7733 27.015 29.7672 24.7819 29.7672 22.0527V17.0904L32.481 15.1918C33.9736 14.1476 35.2105 13.292 35.2297 13.2905C35.2489 13.289 35.3362 13.4869 35.4237 13.7303ZM18.4765 29.1855V34.617L17.7222 35.1229C17.3074 35.4011 16.758 35.7706 16.5014 35.9441C16.2448 36.1176 15.5379 36.5928 14.9306 37.0002C14.3233 37.4075 13.5535 37.9247 13.2199 38.1495C12.8863 38.3744 12.316 38.7565 11.9525 38.9986L11.2916 39.4389L8.0956 39.4394C4.64492 39.4399 4.68486 39.4416 4.22334 39.2736C3.47411 39.0008 2.88105 38.3378 2.66559 37.5323C2.60059 37.2894 2.59791 37.2208 2.59791 35.8042V34.3291L10.3281 29.1735C14.5796 26.338 18.1418 23.9593 18.244 23.8876C18.3462 23.8158 18.4403 23.7564 18.4532 23.7556C18.466 23.7547 18.4765 26.1982 18.4765 29.1855ZM36.425 31.0558C36.4249 35.2387 36.4145 37.1819 36.3915 37.3104C36.2021 38.368 35.4244 39.1761 34.3907 39.3893C34.1692 39.435 33.2923 39.4395 24.7798 39.4392C19.6279 39.4389 15.2168 39.4385 14.9773 39.4383L14.5419 39.4378L16.4392 38.1805C17.4827 37.4889 18.8928 36.556 19.5727 36.1074C23.2383 33.6887 35.6877 25.4503 36.1568 25.1328C36.2925 25.041 36.4083 24.9708 36.4143 24.9767C36.4202 24.9827 36.425 27.7183 36.425 31.0558Z" fill="#fff"></path></svg>